<svg width="134" height="51" viewBox="0 0 134 51" fill="none" xmlns="http://www.w3.org/2000/svg">
  <path d="M23.2167 20.9511C24.9461 20.9511 26.464 21.8865 27.2728 23.2833L29.9602 21.7328C28.6165 19.4134 26.1032 17.8629 23.2291 17.8629C18.9242 17.8629 15.4404 21.3483 15.4404 25.6411C15.4404 29.9338 18.9242 33.4192 23.2291 33.4192C26.1032 33.4192 28.6165 31.8559 29.9602 29.5493L27.2728 27.9988C26.464 29.3956 24.9461 30.331 23.2167 30.331C20.6287 30.331 18.526 28.2295 18.526 25.6539C18.526 23.0782 20.6287 20.9511 23.2167 20.9511Z" fill="white"/>
  <path d="M80.6864 20.9511C82.4158 20.9511 83.9337 21.8865 84.7425 23.2833L87.4299 21.7328C86.0862 19.4134 83.5729 17.8629 80.6988 17.8629C76.3939 17.8629 72.9102 21.3483 72.9102 25.6411C72.9102 29.9338 76.3939 33.4192 80.6988 33.4192C83.5729 33.4192 86.0862 31.8559 87.4299 29.5493L84.7425 27.9988C83.9337 29.3956 82.4158 30.331 80.6864 30.331C78.0985 30.331 75.9958 28.2295 75.9958 25.6539C75.9958 23.0782 78.0985 20.9511 80.6864 20.9511Z" fill="white"/>
  <path d="M118.56 30.0234H115.511V33.0732H118.56V30.0234Z" fill="white"/>
  <path d="M38.2711 17.9397C33.9911 17.9397 30.5322 21.3995 30.5322 25.6666C30.5322 29.9337 34.0035 33.3935 38.2711 33.3935C42.5387 33.3935 46.01 29.9337 46.01 25.6666C46.01 21.3995 42.5387 17.9397 38.2711 17.9397ZM38.2711 30.3309C35.6956 30.3309 33.6054 28.2422 33.6054 25.6794C33.6054 23.1038 35.6956 21.0279 38.2711 21.0279C40.8466 21.0279 42.9369 23.1166 42.9369 25.6794C42.9244 28.2422 40.8466 30.3309 38.2711 30.3309Z" fill="white"/>
  <path d="M95.6166 18.3241H92.8545V33.4063H95.6166V18.3241Z" fill="white"/>
  <path d="M103.965 33.4319H101.091V23.5651C101.091 19.7081 103.679 17.5809 106.851 17.5809C110.037 17.5809 112.637 19.7081 112.637 23.5651V33.4319H109.763V27.9091H103.977V33.4319H103.965ZM109.75 23.5651C109.75 21.2714 108.432 20.1694 106.839 20.1694C105.259 20.1694 103.965 21.2714 103.965 23.5651V25.3078H109.75V23.5651Z" fill="white"/>
  <path d="M50.1908 18.2344H47.4287V33.2012H50.1908V18.2344Z" fill="white"/>
  <path d="M59.5595 18.2344H57.1582V33.2012H59.5595V18.2344Z" fill="white"/>
  <path d="M50.1411 18.1832L57.1584 28.5626V33.1885L50.1411 23.2063" fill="white"/>
  <path d="M88.3516 18.0097V20.7647H100.159V18.0097H88.3516Z" fill="white"/>
  <path d="M64.7978 18.2352H62.0356V33.2021H64.7978V18.2352Z" fill="white"/>
  <path d="M62.0527 18.2224V20.9005H71.9192V18.2224H62.0527Z" fill="white"/>
  <path d="M62.0503 30.5267V33.2048H71.9168V30.5267H62.0503Z" fill="white"/>
  <path d="M62.0479 24.5426V26.9773H71.3794V24.5426H62.0479Z" fill="white"/>
</svg>